<?xml version="1.0" encoding="utf-8"?>
<!-- Generator: Adobe Illustrator 16.0.0, SVG Export Plug-In . SVG Version: 6.00 Build 0)  -->
<!DOCTYPE svg PUBLIC "-//W3C//DTD SVG 1.0//EN" "http://www.w3.org/TR/2001/REC-SVG-20010904/DTD/svg10.dtd">
<svg version="1.0" id="Camada_1" xmlns="http://www.w3.org/2000/svg" xmlns:xlink="http://www.w3.org/1999/xlink" x="0px" y="0px"
	 width="515.771px" height="213.557px" viewBox="0 0 515.771 213.557" enable-background="new 0 0 515.771 213.557"
	 xml:space="preserve">
<g>
	<g>
		<path fill="#961914" stroke="#52100F" stroke-width="4" stroke-linejoin="round" stroke-miterlimit="10" d="M45.091,158.663
			c-2.653,40.673-7.849,34.5-7.798,43.87c0.05,9.37,8.361,9.021,8.361,9.021s8.314,0.26,8.264-9.111
			C53.854,190.61,48.002,196.947,45.091,158.663z"/>
		<path fill="#221C3B" d="M161.298,129.555c-0.584-0.182-32.122-10.109-68.73-26.774l28.113-10.011
			c0.814-0.29,1.35-1.07,1.329-1.934c-0.021-0.864-0.596-1.617-1.423-1.865c-0.852-0.256-85.436-26.223-107.022-77.881
			c-0.366-0.877-1.299-1.374-2.231-1.191c-0.933,0.184-1.607,0.998-1.614,1.949c-0.151,21.842,9.604,43.051,28.337,61.876
			C25.045,65.421,13.063,56.408,3.409,46.828c-0.658-0.655-1.68-0.769-2.465-0.278c-0.787,0.49-1.134,1.456-0.839,2.335
			c15.854,47.184,75.653,67.73,78.191,68.582c0.083,0.028,0.168,0.05,0.254,0.067l81.773,15.895
			c0.128,0.025,0.256,0.037,0.383,0.037c0.899,0,1.71-0.609,1.938-1.512C162.902,130.924,162.312,129.871,161.298,129.555z"/>
		<path fill="#952A58" d="M20.208,33.882C41.114,63.294,88.69,88.366,88.69,88.366l-5.671,11.541
			C83.019,99.907,28.465,66.842,20.208,33.882z"/>
		<path fill="#221C3B" d="M176.817,96.7c-7.144-13.923-20.818-23.191-40.644-27.547C81.2,57.076,66.583,46.878,38.429,0.955
			c-0.472-0.769-1.398-1.128-2.267-0.874c-0.866,0.253-1.456,1.056-1.438,1.958c0.192,9.996,4.417,22.934,9.31,37.914
			c11.585,35.473,26.002,79.622-0.626,117.455c-0.029,0.041-0.057,0.083-0.083,0.127c-0.157,0.258-0.25,0.543-0.279,0.832
			c0,0.001,0,0.002,0,0.003c0,0,0,0.001,0,0.001c0,0.002,0,0.003,0,0.004c0,0,0,0,0,0.001c-0.009,0.094-0.012,0.188-0.008,0.282
			c0,0.002,0,0.004,0,0.004c0,0.002,0,0.003,0,0.004c0,0,0,0,0,0.001c0.018,0.38,0.145,0.756,0.378,1.078
			c0.711,0.986,1.819,2.366,3.222,4.112c6.979,8.689,23.325,29.038,20.575,41.558c-0.212,0.968,0.316,1.945,1.242,2.298
			c0.233,0.089,0.474,0.131,0.711,0.131c0.706,0,1.382-0.375,1.745-1.021c8.72-15.551,27.213-18.688,46.792-22.01
			c25.645-4.351,54.711-9.282,62.648-45.411C183.955,122.997,182.733,108.23,176.817,96.7z M80.359,118.049
			c9.853,2.813,31.805,9.923,32.125,24.505c-15.709,4.128-28.223,7.467-41.418,19.84c-3.019-1.093-11.167-3.906-18.468-5.194
			C67.47,148.575,76.503,132.227,80.359,118.049z"/>
		<path fill="#952A58" d="M47.667,26.331c21.25,33.75,42.806,41.288,80.186,49.5c36.266,7.968,48.951,32.164,42.857,59.903
			c-11.654,53.044-78.047,28.823-100.376,56.015c-9.748-24.575-25.298-33.179-25.298-33.179c0,0,18.361,6.14,24.601,13.206
			c2.697,3.055,3.914,6.678,3.947,7.221c1.417,1-0.429-5.055,0.339-5.969c21.342-25.367,55.017-14.355,60.677-40.12
			c7.2-32.771-34.33-29.798-59.599-42.625c-5.08,31.651-10.716,48.995-29.965,68.287c21.161-21.657,22.518-60.586,14.408-99.739
			c21.733,28.915,53.058,34.034,69.974,37.75C92.401,85.438,62.917,66.895,47.667,26.331z"/>
	</g>
	<g>
		<path fill="#221C3B" d="M225.64,111.341c-4.635,0-8.56,1.99-11.666,5.915c-1.211,1.53-2.352,3.367-3.415,5.499v-9.413
			c0-0.548-0.225-1.072-0.622-1.449c-0.396-0.377-0.919-0.573-1.479-0.548l-18.101,0.913c-1.064,0.054-1.899,0.932-1.899,1.998
			v3.813c0,1.104,0.896,2,2,2h4.404c1.361,0,2.338,0.342,2.986,1.045c0.674,0.733,1.03,2.113,1.03,3.991v32.065
			c0,0.145,0,0.413-0.51,0.807c-0.342,0.263-1.069,0.577-2.593,0.577h-4.995c-1.104,0-2,0.896-2,2v4.028c0,1.104,0.896,2,2,2h31.26
			c1.104,0,2-0.896,2-2v-4.028c0-1.104-0.896-2-2-2h-6.392c-2.272,0-3.027-0.434-3.204-0.566c-0.254-0.19-0.489-0.467-0.489-1.193
			v-10.796c0-3.671,1.05-8.719,3.12-14.998c1.283-3.848,3.108-6.894,5.421-9.046c0.521-0.481,1.023-0.883,1.497-1.2
			c-0.334,0.944-0.503,1.932-0.503,2.954c0,2.334,0.674,4.253,2.003,5.702c1.355,1.479,3.211,2.26,5.368,2.26
			c2.213,0,4.154-0.888,5.615-2.565c1.415-1.622,2.132-3.834,2.132-6.578c0-3.322-1.014-6.042-3.014-8.085
			C231.584,112.384,228.908,111.341,225.64,111.341z"/>
		<path fill="#221C3B" d="M295.888,160.976l-1.934-3.008c-0.3-0.467-0.779-0.788-1.325-0.887c-0.545-0.097-1.106,0.032-1.552,0.363
			c-1.179,0.878-2.259,1.323-3.21,1.323c-0.421,0-0.881-0.106-1.414-0.906c-0.378-0.55-0.829-1.731-0.829-4.237v-27.5
			c0-4.329-1.833-8.045-5.46-11.055c-3.504-2.866-8.538-4.319-14.963-4.319c-6.886,0-12.569,1.613-16.895,4.793
			c-4.516,3.32-6.805,7.133-6.805,11.333c0,2.434,0.8,4.479,2.375,6.076c1.583,1.608,3.571,2.423,5.909,2.423
			c2.216,0,4.061-0.708,5.484-2.104c1.431-1.407,2.155-3.215,2.155-5.374c0-1.556-0.634-3.187-1.958-5.014
			c-0.537-0.716-0.759-1.13-0.847-1.328c0.114-0.168,0.451-0.557,1.367-1.107c1.939-1.108,4.316-1.67,7.064-1.67
			c2.887,0,5.177,0.784,6.999,2.398c1.751,1.55,2.603,3.345,2.603,5.485v5.854c-9.619,1.237-17.52,3.567-23.499,6.933
			c-6.789,3.819-10.231,8.788-10.231,14.768c0,4.082,1.6,7.475,4.754,10.082c3.042,2.514,7.428,3.788,13.037,3.788
			c3.894,0,7.304-0.668,10.136-1.985c2.266-1.055,4.723-2.857,7.461-5.479c1.114,2.243,2.368,3.905,3.798,5.042
			c2.02,1.606,4.508,2.422,7.395,2.422c3.731,0,7.142-1.559,10.134-4.633C296.288,162.785,296.391,161.758,295.888,160.976z
			 M253.076,153.087c0-3.308,1.13-5.774,3.438-7.527c3.19-2.378,8.614-4.193,16.141-5.406v4.877c0,4.335-1.336,7.825-4.083,10.669
			c-2.73,2.823-5.854,4.196-9.547,4.196c-1.805,0-3.208-0.559-4.292-1.708C253.618,157.004,253.076,155.336,253.076,153.087z"/>
		<path fill="#221C3B" d="M343.552,109.676c-3.247,0-6.576,1.604-10.142,4.894c-1.917-1.144-3.902-2.035-5.921-2.657
			c-2.509-0.771-5.146-1.163-7.839-1.163c-6.587,0-12.049,1.825-16.235,5.425c-4.275,3.676-6.443,8.307-6.443,13.763
			c0,3.458,0.885,6.579,2.63,9.276c1.092,1.689,2.523,3.226,4.279,4.593c-2.085,1.022-3.668,2.179-4.794,3.499
			c-1.76,2.065-2.652,4.516-2.652,7.286c0,3.039,1.118,5.619,3.323,7.667c0.826,0.77,1.81,1.463,2.946,2.078
			c-1.828,0.75-3.294,1.647-4.427,2.704c-2.292,2.14-3.454,4.583-3.454,7.263c0,3.404,1.749,6.453,5.194,9.059
			c4.063,3.086,10.234,4.65,18.344,4.65c9.769,0,17.28-2.266,22.316-6.724c3.805-3.32,5.733-7.478,5.733-12.356
			c0-4.544-1.757-8.18-5.224-10.807c-3.343-2.531-8.471-3.762-15.72-3.762c-0.001,0-0.003,0-0.003,0l-13.227,0.269
			c-3.616,0-4.814-0.548-5.163-0.784c-0.559-0.378-0.786-0.832-0.786-1.566c0-1.051,0.341-1.724,1.109-2.23
			c0.466-0.295,2.102-0.98,7.203-0.98h5.854c3.499,0,7.181-0.999,10.943-2.967c3.792-1.983,6.57-4.343,8.257-7.016
			c1.702-2.694,2.565-5.827,2.565-9.312c0-2.017-0.33-3.939-0.982-5.712c-0.505-1.372-1.306-2.877-2.435-4.568
			c0.362-0.288,0.655-0.453,0.879-0.546c0.004,0.014,0.008,0.028,0.012,0.042c1.294,4.534,4.352,5.21,6.059,5.21
			c1.628,0,3.112-0.678,4.295-1.964c1.15-1.255,1.733-2.821,1.733-4.655c0-2.2-0.801-4.093-2.381-5.625
			C347.839,110.444,345.872,109.676,343.552,109.676z M309.704,169.051c2.468-1.604,6.845-2.416,13.009-2.416
			c3.859,0,6.784,0.304,8.693,0.901c1.699,0.533,2.92,1.275,3.626,2.203c0.701,0.922,1.042,1.87,1.042,2.898
			c0,1.777-1.268,3.51-3.769,5.148c-2.77,1.814-7.081,2.734-12.815,2.734c-4.729,0-8.368-0.827-10.821-2.462
			c-1.55-1.023-2.271-2.319-2.271-4.078C306.397,172.108,307.478,170.496,309.704,169.051z M313.183,138.78
			c-1.759-2.107-2.65-5.208-2.65-9.218c0-3.703,0.879-6.573,2.613-8.53c1.693-1.914,3.786-2.844,6.397-2.844
			c2.6,0,4.694,0.967,6.406,2.957c1.764,2.05,2.658,4.954,2.658,8.632c0,4.002-0.878,7.063-2.61,9.096
			c-1.676,1.967-3.769,2.923-6.4,2.923C316.973,141.795,314.875,140.809,313.183,138.78z"/>
		<path fill="#221C3B" d="M417.521,158.553h-3.169c-1.414,0-2.439-0.321-3.134-0.979c-0.666-0.633-0.989-1.591-0.989-2.929v-41.304
			c0-0.548-0.226-1.073-0.623-1.45c-0.397-0.378-0.916-0.567-1.48-0.547l-17.671,0.913c-1.063,0.055-1.896,0.933-1.896,1.998v3.76
			c0,1.081,0.858,1.966,1.938,1.999c4.169,0.127,5.556,0.862,5.961,1.173c0.74,0.568,1.07,1.313,1.07,2.414v18.853
			c0,4.413-1.217,7.964-3.72,10.857c-2.429,2.805-5.273,4.169-8.698,4.169c-2.694,0-4.818-0.879-6.491-2.688
			c-1.692-1.828-2.55-4.551-2.55-8.095v-33.354c0-0.548-0.225-1.072-0.622-1.45c-0.397-0.378-0.93-0.567-1.48-0.548l-17.832,0.913
			c-1.063,0.055-1.897,0.933-1.897,1.998v3.76c0,1.088,0.869,1.976,1.957,2c4.096,0.089,5.276,0.67,5.558,0.858
			c0.969,0.631,1.401,1.473,1.401,2.729v21.86c0,7.727,1.774,13.36,5.258,16.729c3.448,3.413,7.766,5.144,12.83,5.144
			c3.459,0,6.903-0.997,10.238-2.962c2.186-1.288,4.374-3.01,6.535-5.144l0.6,5.516c0.11,1.018,0.97,1.784,1.987,1.784
			c0.016,0,0.03,0,0.046-0.001l16.919-0.376c1.087-0.023,1.955-0.912,1.955-1.999v-3.599
			C419.521,159.448,418.625,158.553,417.521,158.553z"/>
		<path fill="#221C3B" d="M452.541,158.553h-5.317c-0.83,0-1.492-0.208-1.954-0.574c-0.058-0.052-0.235-0.208-0.235-0.81V84.229
			c0-0.546-0.224-1.069-0.618-1.446c-0.396-0.377-0.908-0.579-1.474-0.552l-19.927,0.913c-1.067,0.049-1.908,0.929-1.908,1.998
			v4.028c0,1.104,0.896,2,2,2h4.512c1.45,0,2.621,0.403,3.59,1.241c0.496,0.423,0.748,1.23,0.748,2.399v61.23
			c0,1.308-0.456,1.753-0.608,1.901c-0.516,0.505-1.523,0.61-2.279,0.61h-5.049c-1.104,0-2,0.896-2,2v4.028c0,1.104,0.896,2,2,2
			h28.521c1.104,0,2-0.896,2-2v-4.028C454.541,159.448,453.645,158.553,452.541,158.553z"/>
		<path fill="#221C3B" d="M515.454,160.976l-1.934-3.008c-0.3-0.467-0.779-0.788-1.325-0.887c-0.545-0.097-1.106,0.032-1.552,0.363
			c-1.179,0.878-2.259,1.323-3.21,1.323c-0.421,0-0.881-0.106-1.414-0.906c-0.378-0.55-0.829-1.731-0.829-4.237v-27.5
			c0-4.329-1.833-8.045-5.46-11.055c-3.504-2.866-8.538-4.319-14.963-4.319c-6.886,0-12.569,1.613-16.895,4.793
			c-4.516,3.32-6.805,7.133-6.805,11.333c0,2.434,0.8,4.479,2.375,6.076c1.583,1.608,3.571,2.423,5.909,2.423
			c2.216,0,4.061-0.708,5.484-2.104c1.431-1.407,2.155-3.215,2.155-5.374c0-1.556-0.634-3.187-1.958-5.014
			c-0.537-0.716-0.759-1.13-0.847-1.328c0.114-0.168,0.451-0.557,1.367-1.107c1.939-1.108,4.316-1.67,7.064-1.67
			c2.887,0,5.177,0.784,6.999,2.398c1.751,1.55,2.603,3.345,2.603,5.485v5.854c-9.619,1.237-17.52,3.567-23.499,6.933
			c-6.789,3.819-10.231,8.788-10.231,14.768c0,4.082,1.6,7.475,4.754,10.082c3.042,2.514,7.428,3.788,13.037,3.788
			c3.894,0,7.304-0.668,10.136-1.985c2.266-1.055,4.723-2.857,7.461-5.479c1.114,2.243,2.368,3.905,3.798,5.042
			c2.02,1.606,4.508,2.422,7.395,2.422c3.731,0,7.142-1.559,10.134-4.633C515.853,162.785,515.957,161.758,515.454,160.976z
			 M472.641,153.087c0-3.308,1.13-5.774,3.438-7.527c3.19-2.378,8.614-4.193,16.141-5.406v4.877c0,4.335-1.336,7.825-4.083,10.669
			c-2.73,2.823-5.854,4.196-9.547,4.196c-1.805,0-3.208-0.559-4.292-1.708C473.183,157.004,472.641,155.336,472.641,153.087z"/>
	</g>
</g>
</svg>
